<svg xmlns="http://www.w3.org/2000/svg" viewBox="0 0 512 512" style="height: 512px; width: 512px;"><g class="" transform="translate(0,0)" style=""><g><path d="M45.95 14.553C26.57 15.363 15.356 25.91 15.668 44.836L35.436 75.616C39.866 74.403 44.796 71.778 49.684 68.281L92.158 128.216C75.14 149.046 60.9 172.656 49.448 199.052L75.998 225.604C87.273 202.004 100.632 180.778 115.916 161.74L326.736 459.215L493.543 492.428L460.33 325.62L162.78 114.745C182.687 98.637 204.622 84.835 228.432 73.167L201.879 46.617C174.673 58.42 150.437 73.193 129.144 90.909L69.39 48.56C72.833 43.737 75.452 38.825 76.732 34.318L45.952 14.553Z" class="selected" fill="#9b9b9b" fill-opacity="1"></path><path d="M446.79 101.486L446.79 101.494L446.793 101.486L446.791 101.486Z" class="" fill="#9b9b9b" fill-opacity="1"></path><path d="M446.79 101.494L418.762 226.464L393.646 145.871L375.541 216.538L348.679 166.898L348.095 224.716L476.579 316.406L491.763 403.423L490.595 216.538L456.138 256.251L446.792 101.495Z" class="" fill="#f5a623" fill-opacity="1"></path><path d="M145.84 129.474L368.064 325.842L393.709 392.592L326.959 366.947L130.6 144.734C135.51 139.456 140.595 134.374 145.838 129.474Z" class="" fill="#ffffff" fill-opacity="1"></path><path d="M178.145 325.748L178.145 325.752L178.15 325.752L178.145 325.748Z" class="" fill="#8b572a" fill-opacity="1"></path><path d="M178.15 325.752L206.178 348.527L169.968 352.615L227.788 371.887L122.082 375.977L237.132 403.427L136.1 422.114L263.416 447.81L196.252 491.613L404.746 493.365L317.729 478.18L213.189 327.504L178.152 325.752Z" class="" fill="#f5a623" fill-opacity="1"></path></g></g></svg>