<svg xmlns="http://www.w3.org/2000/svg" viewBox="0 0 512 512" style="height: 512px; width: 512px;"><g class="" transform="translate(0,0)" style=""><g><path d="M371.28 18.906C330.5 18.998 288.754 39.932 260.656 84.719C225.086 33.052 167.368 12.989 117.156 23.249C62.729 34.369 17.373 82.195 19.686 157.937C21.856 228.915 62.714 278.795 110.936 326.467C159.161 374.141 215.206 420.667 252.906 485.967L261 500L269.094 485.97C306.644 420.928 364.498 376.595 413.719 329.906C462.939 283.216 503.886 232.704 501.624 157.376C499.49 86.238 455.06 36.64 401.875 22.81C391.903 20.217 381.623 18.88 371.281 18.904Z" class="" fill="#af0519" fill-opacity="1"></path><path d="M371.22 37.438C379.974 37.498 388.682 38.671 397.156 40.875C442.353 52.628 481.056 94.22 482.969 157.938C485.023 226.361 449.029 270.665 400.874 316.344C355.882 359.022 300.599 401.64 261.03 463.344C221.764 401.494 168.346 356.934 124.094 313.188C76.731 266.365 40.334 221.508 38.374 157.375C36.29 89.075 74.47 51.05 120.907 41.562C167.344 32.075 222.245 52.282 252.845 107.406L261.345 122.781L269.345 107.126C294.42 57.898 333.28 37.17 371.22 37.437Z" class="" fill="#d0021b" fill-opacity="1"></path><path d="M358.81 58.343C357.14 58.32 355.546 58.376 354.03 58.499C347.964 58.989 343.293 60.584 340.248 62.655C337.203 64.725 335.57 67.039 334.748 70.655C333.104 77.888 336.884 90.068 346.936 102.685C356.986 115.305 372.608 128.031 390.873 137.125C409.138 146.217 426.491 149.792 438.623 148.811C444.689 148.321 449.328 146.726 452.373 144.655C455.418 142.585 457.083 140.271 457.903 136.655C459.548 129.423 455.737 117.275 445.686 104.655C435.634 92.035 420.044 79.31 401.779 70.218C385.799 62.261 370.509 58.5 358.812 58.342Z" class="" fill="#d0021b" fill-opacity="1"></path><path d="M148.81 58.373C147.495 58.356 146.245 58.403 145.06 58.499C140.324 58.879 136.8 60.093 134.623 61.562C132.447 63.03 131.415 64.496 130.843 66.999C129.695 72.005 132.433 81.409 140.436 91.374C148.436 101.338 160.986 111.506 175.654 118.749C190.321 125.992 204.214 128.789 213.684 128.029C218.422 127.651 221.947 126.405 224.124 124.936C226.299 123.468 227.331 122.002 227.904 119.499C229.051 114.493 226.312 105.089 218.31 95.124C210.31 85.16 197.76 75.024 183.092 67.78C170.258 61.444 158.016 58.5 148.812 58.375Z" class="selected" fill="#d0021b" fill-opacity="1"></path><path d="M263.123 188.373C208.653 188.373 159.315 192.831 124.185 199.873C106.621 203.396 92.569 207.633 83.685 211.843C79.245 213.948 76.14 216.106 74.623 217.593C73.893 218.308 73.599 218.728 73.467 218.937C73.597 219.152 73.891 219.595 74.622 220.312C76.139 221.798 79.242 223.925 83.685 226.03C92.568 230.242 106.62 234.478 124.185 238C159.315 245.043 208.651 249.53 263.122 249.53C317.592 249.53 366.93 245.043 402.06 238C419.624 234.478 433.676 230.242 442.56 226.03C447 223.926 450.105 221.8 451.622 220.312C452.352 219.596 452.646 219.152 452.778 218.937C452.648 218.729 452.353 218.309 451.623 217.594C450.106 216.107 447.003 213.949 442.56 211.844C433.677 207.634 419.625 203.397 402.06 199.874C366.93 192.832 317.594 188.374 263.123 188.374Z" class="" fill="#d0021b" fill-opacity="1"></path><path d="M452.78 218.94C452.924 219.165 452.875 219.143 452.875 218.94C452.875 218.736 452.923 218.708 452.781 218.94Z" class="" fill="#fff" fill-opacity="1"></path><path d="M73.47 218.94C73.327 218.708 73.375 218.736 73.375 218.94C73.375 219.143 73.325 219.165 73.469 218.94Z" class="" fill="#fff" fill-opacity="1"></path><path d="M438.062 247.94C428.862 251.1 418.06 253.87 405.719 256.346C368.791 263.749 318.607 268.221 263.124 268.221C207.641 268.221 157.424 263.748 120.499 256.345C109.012 254.042 98.836 251.485 90.061 248.595C133.858 305.945 209.513 354.795 260.749 433.532C289.725 389.632 327.469 356.212 362.529 325.158C391.727 299.3 418.836 274.964 438.062 247.938Z" class="" fill="#d0021b" fill-opacity="1"></path></g></g></svg>